<svg xmlns="http://www.w3.org/2000/svg" viewBox="0 0 1024 1024" role="img" aria-labelledby="title desc">
  <title id="title">ForgeGauge app icon</title>
  <desc id="desc">Rounded square app icon with a split blue and orange gauge and privacy shield.</desc>
  <defs>
    <linearGradient id="plate" x1="140" y1="90" x2="900" y2="940" gradientUnits="userSpaceOnUse">
      <stop offset="0" stop-color="#ffffff"/>
      <stop offset="1" stop-color="#edf0f5"/>
    </linearGradient>
    <filter id="shadow" x="-12%" y="-12%" width="124%" height="124%">
      <feDropShadow dx="0" dy="22" stdDeviation="30" flood-color="#172033" flood-opacity="0.2"/>
    </filter>
  </defs>
  <rect x="64" y="64" width="896" height="896" rx="216" fill="url(#plate)"/>
  <rect x="64" y="64" width="896" height="896" rx="216" fill="none" stroke="#d8dee9" stroke-width="20"/>
  <g filter="url(#shadow)">
    <circle cx="512" cy="512" r="352" fill="#f6f7fb" stroke="#d8dee9" stroke-width="18"/>
    <circle cx="512" cy="512" r="270" fill="none" stroke="#e4e8ef" stroke-width="86"/>
    <path d="M328 710 A270 270 0 0 1 328 314" fill="none" stroke="#2563eb" stroke-width="86" stroke-linecap="round"/>
    <path d="M696 314 A270 270 0 0 1 696 710" fill="none" stroke="#c75b12" stroke-width="86" stroke-linecap="round"/>
    <g stroke="#647084" stroke-width="11" stroke-linecap="round" opacity="0.9">
      <path d="M512 206v42"/>
      <path d="M512 776v42"/>
      <path d="M206 512h42"/>
      <path d="M776 512h42"/>
      <path d="M294 294l30 30"/>
      <path d="M700 700l30 30"/>
      <path d="M730 294l-30 30"/>
      <path d="M324 700l-30 30"/>
    </g>
    <circle cx="512" cy="512" r="162" fill="#ffffff" stroke="#d8dee9" stroke-width="12"/>
    <path d="M512 392l110 44v88c0 72-42 128-110 160-68-32-110-88-110-160v-88l110-44z" fill="#f6f7fb" stroke="#647084" stroke-width="13" stroke-linejoin="round"/>
    <rect x="469" y="516" width="86" height="80" rx="16" fill="#172033"/>
    <path d="M485 516v-30c0-38 22-62 27-62s27 24 27 62v30" fill="none" stroke="#172033" stroke-width="18" stroke-linecap="round"/>
    <circle cx="512" cy="555" r="11" fill="#f6f7fb"/>
    <path d="M512 567v19" stroke="#f6f7fb" stroke-width="8" stroke-linecap="round"/>
  </g>
</svg>
