<svg xmlns="http://www.w3.org/2000/svg" viewBox="0 0 1200 360" role="img" aria-labelledby="title desc">
  <title id="title">ForgeGauge logo lockup on dark</title>
  <desc id="desc">Light ForgeGauge wordmark with the split gauge logo mark for dark surfaces.</desc>
  <g transform="translate(48 48) scale(0.516)">
    <circle cx="256" cy="256" r="218" fill="#f6f7fb" stroke="#d8dee9" stroke-width="12"/>
    <circle cx="256" cy="256" r="172" fill="none" stroke="#e4e8ef" stroke-width="56"/>
    <path d="M 139 382 A 172 172 0 0 1 139 130" fill="none" stroke="#2563eb" stroke-width="56" stroke-linecap="round"/>
    <path d="M 373 130 A 172 172 0 0 1 373 382" fill="none" stroke="#c75b12" stroke-width="56" stroke-linecap="round"/>
    <circle cx="256" cy="256" r="105" fill="#ffffff" stroke="#d8dee9" stroke-width="7"/>
    <path d="M256 176l72 29v57c0 47-28 84-72 105-44-21-72-58-72-105v-57l72-29z" fill="#f6f7fb" stroke="#647084" stroke-width="8" stroke-linejoin="round"/>
    <rect x="228" y="256" width="56" height="52" rx="10" fill="#172033"/>
    <path d="M238 256v-18c0-24 14-40 18-40s18 16 18 40v18" fill="none" stroke="#172033" stroke-width="12" stroke-linecap="round"/>
    <circle cx="256" cy="281" r="7" fill="#f6f7fb"/>
    <path d="M256 288v12" stroke="#f6f7fb" stroke-width="5" stroke-linecap="round"/>
  </g>
  <text x="360" y="158" fill="#f6f7fb" font-family="Inter, Segoe UI, Arial, sans-serif" font-size="86" font-weight="800">ForgeGauge</text>
  <text x="365" y="215" fill="#cbd3df" font-family="Inter, Segoe UI, Arial, sans-serif" font-size="30" font-weight="600">Pickforge AI Usage Tray</text>
  <g transform="translate(367 256)">
    <rect width="106" height="10" rx="5" fill="#2563eb"/>
    <rect x="122" width="106" height="10" rx="5" fill="#c75b12"/>
    <rect x="244" width="60" height="10" rx="5" fill="#647084"/>
  </g>
</svg>
